<svg width="24" height="24" viewBox="0 0 24 24" fill="none" xmlns="http://www.w3.org/2000/svg">
<g clip-path="url(#clip0_177_147)">
<path d="M1 18V6C1 3.23858 3.23858 1 6 1H18C20.7614 1 23 3.23858 23 6V18C23 20.7614 20.7614 23 18 23H6C3.23858 23 1 20.7614 1 18Z" stroke="#424242" stroke-opacity="0.6" stroke-width="2"/>
<path d="M5 16V8C5 6.34315 6.34315 5 8 5H16C17.6569 5 19 6.34315 19 8V8.18182V16C19 17.6569 17.6569 19 16 19H8C6.34315 19 5 17.6569 5 16Z" stroke="#424242" stroke-opacity="0.6" stroke-width="2"/>
</g>
<defs>
<clipPath id="clip0_177_147">
<rect width="24" height="24" fill="white"/>
</clipPath>
</defs>
</svg>
